<svg xmlns="http://www.w3.org/2000/svg" width="399.098" height="142.56" viewBox="0 0 399.098 142.56"><g fill-rule="evenodd" clip-rule="evenodd"><g fill="#807060"><path d="M138.458 60.336c-7.488 0-13.32 6.047-13.32 13.464v14.976c0 7.344 5.976 13.247 13.32 13.247 2.232 0 4.392 1.944 4.392 4.393v15.768c0 2.303-2.016 4.392-4.392 4.392-2.448 0-4.392-1.944-4.392-4.392v-5.04c0-2.52-2.088-4.393-4.536-4.393-2.448 0-4.392 1.944-4.392 4.394v5.04c0 7.416 5.832 13.463 13.32 13.463 7.272 0 13.32-6.047 13.32-13.463v-15.768c0-7.345-5.904-13.464-13.32-13.464-2.448 0-4.392-1.944-4.392-4.176V73.8c0-2.448 1.944-4.392 4.392-4.392 2.232 0 4.392 1.944 4.392 4.392v5.04c0 2.448 1.944 4.392 4.392 4.392 2.592 0 4.536-1.944 4.536-4.392V73.8c0-7.344-5.904-13.464-13.32-13.464M168.626 21.6c-2.663 0-4.536 1.87-4.536 4.535V131.11c0 2.522 2.016 4.537 4.536 4.537 2.448 0 4.392-2.16 4.392-4.536V26.136c0-2.447-1.944-4.535-4.392-4.535M199.01 60.336h-.072c-7.344 0-13.248 6.12-13.248 13.464v48.384c0 7.416 5.976 13.463 13.248 13.463.072 0 .072-.07.072-.07 7.487 0 13.248-6.05 13.248-13.393V73.8c0-7.417-5.76-13.464-13.248-13.464m4.32 61.848c0 2.376-1.872 4.32-4.32 4.32 0 0 0 .07-.072.07-2.304 0-4.32-2.088-4.32-4.39V73.8c0-2.448 2.088-4.392 4.32-4.392h.072c2.448 0 4.32 1.944 4.32 4.392v48.384zM247.178 60.336c-2.593 0-4.536 2.088-4.536 4.536v32.615c0 13.68-1.655 20.16-4.393 25.345-2.81-5.185-4.393-11.663-4.393-25.345V64.872c0-2.448-1.944-4.536-4.392-4.536-2.592 0-4.536 2.088-4.536 4.536v32.615c0 11.377 2.447 31.393 13.318 38.665 7.776-5.257 13.32-19.8 13.32-38.665V64.872c.002-2.376-1.943-4.536-4.39-4.536M275.618 61.487h-3.24c-2.448 0-4.536 1.945-4.536 4.536 0 2.45 2.088 4.537 4.536 4.537h3.24c2.304 0 4.392 1.872 4.392 4.247v16.56h-4.392c-7.416 0-13.248 6.12-13.248 13.465v16.343c0 7.344 5.903 13.32 13.248 13.32h13.32V74.807c0-7.416-5.976-13.32-13.32-13.32m4.392 63.937h-4.392c-2.232 0-4.393-1.945-4.393-4.25v-16.342c0-2.376 2.016-4.392 4.393-4.392h4.392v24.984zM314.858 60.336c-7.273 0-13.32 6.047-13.32 13.464v57.31c0 2.45 2.088 4.537 4.537 4.537 2.52 0 4.392-2.16 4.392-4.536V73.8c0-2.448 2.088-4.392 4.392-4.392 2.447 0 4.39 1.944 4.39 4.392v57.31c0 2.45 2.018 4.537 4.538 4.537 2.447 0 4.392-2.16 4.392-4.536V73.8c-.002-7.417-5.834-13.464-13.322-13.464M354.098 60.336c-7.344 0-13.248 6.12-13.248 13.464v48.384c0 7.416 5.976 13.463 13.248 13.463v-.07c7.487 0 13.32-6.05 13.32-13.393v-1.297c0-2.592-1.944-4.535-4.393-4.535-2.592 0-4.536 1.943-4.536 4.535v1.297c0 2.376-1.944 4.32-4.393 4.32v.07c-2.304 0-4.32-2.088-4.32-4.39V105.12h17.64V73.8c0-7.417-5.832-13.464-13.32-13.464m4.392 35.712h-8.712V73.8c0-2.448 2.088-4.392 4.32-4.392 2.447 0 4.39 1.944 4.39 4.392v22.248zM394.49 61.487h-3.528V40.103c0-2.52-2.017-4.607-4.536-4.607-2.593 0-4.536 1.944-4.536 4.607v21.384h-3.6c-2.592 0-4.536 1.945-4.536 4.536 0 2.45 1.944 4.537 4.536 4.537h3.6v60.55c0 2.45 2.016 4.537 4.536 4.537 2.448 0 4.536-2.16 4.536-4.536V70.56h3.527c2.447 0 4.607-2.088 4.607-4.537 0-2.59-2.16-4.536-4.608-4.536"/></g><path fill="#F36E21" d="M60.554 107.424l.504 1.295-1.296.288-30.096-17.712-1.008-12.168c9-8.64 31.176-31.825 31.176-31.825h7.272c.288.145 34.848 33.193 34.992 32.76V93.24L67.61 142.487l-18.576.073C47.738 142.272 2.882 108.144.29 83.52-3.742 46.655 35.066 26.207 69.05 26.35c10.584.144 17.928-9.072 25.92-15.48C96.266 9.36 106.85 0 106.85 0s-5.184 14.112-6.552 15.696C89.93 36.07 66.386 39.744 46.442 43.343c-17.928 3.097-31.824 15.48-30.744 34.705 1.224 23.47 43.92 49.463 43.92 49.463l27.288-40.678-23.832-24.48-22.68 20.376 20.16 24.696"/></g></svg>